<svg id="Layer_1" data-name="Layer 1" xmlns="http://www.w3.org/2000/svg" viewBox="0 0 654.96 410.6"><defs><style>.cls-1{fill:#fff;}</style></defs><g id="그룹_55" data-name="그룹 55"><path id="패스_10" data-name="패스 10" class="cls-1" d="M650.46,167.05,330.06,3.64a32.28,32.28,0,0,0-3.68-1.57h0a6,6,0,0,0-.8-.29c-.49-.16-.93-.32-1.46-.46L322.69,1c-.46-.11-.94-.21-1.39-.3s-1-.18-1.53-.27A7.58,7.58,0,0,1,319,.25h-.06a33.59,33.59,0,0,0-4-.25H8.22A8.22,8.22,0,0,0,0,8.22H0V321H0V327H0c0,.27.07.54.12.8a.38.38,0,0,0,.07.27,2.92,2.92,0,0,1,.12.49c0,.16.08.23.12.35a3.57,3.57,0,0,0,.14.38l.17.36c.06.12.1.23.16.34s.13.23.19.34l.2.32.22.31.24.32.23.27.28.31.25.23.33.3.25.21.36.27.29.27.38.23.31.16.37.18.36.16.35.13.4.13.35.1.43.09h.1l434.14,76.21a8.54,8.54,0,0,0,1.43.12H646.73a8.23,8.23,0,0,0,8.23-8.22v-228a8.23,8.23,0,0,0-4.5-7.33m-3.52,227.71a8,8,0,0,1-8,8H439.55a8,8,0,0,1-1.38-.12L14.65,328.33h-.1l-.42-.09-.34-.09L13.4,328l-.3-.16-.35-.15-.36-.18-.3-.16-.37-.23-.26-.18-.34-.26-.29-.16-.32-.29-.22-.26-.28-.31-.22-.26-.24-.32-.19-.3-.23-.32-.19-.32-.15-.33a2.32,2.32,0,0,1-.16-.36,2.6,2.6,0,0,1-.13-.36,1,1,0,0,0-.14-.31,2.88,2.88,0,0,1-.12-.47c0-.15,0-.18-.06-.27,0-.26-.09-.51-.12-.78h0V15.36a8,8,0,0,1,8-8H315.2a31.83,31.83,0,0,1,3.91.27h.06a5.65,5.65,0,0,1,.79.13c.49.07,1,.15,1.48.25s.94.2,1.36.3.94.22,1.37.36l1.42.44c.25.09.51.15.76.25h0a33.51,33.51,0,0,1,3.6,1.53L642.56,170.29a8,8,0,0,1,4.38,7.15Z"/><path id="패스_11" data-name="패스 11" class="cls-1" d="M305.6,23.39h-274a7.5,7.5,0,0,0-7.49,7.49V304.93a7.49,7.49,0,0,0,7.49,7.49H305.6a7.49,7.49,0,0,0,7.49-7.49V30.86a7.48,7.48,0,0,0-7.49-7.48M93.36,274.65a30.46,30.46,0,0,1-14.6,3c-13.58,0-22-5.06-22-19.94V216h-10V202h10V184.35H75.44V202h17.2v14H75.44v38.71c0,6.36,2.74,8.53,9.83,8.53a28.4,28.4,0,0,0,8.09-1.15Zm32.07,2.17H106.36V202h19.07Zm.14-86.08H106.2V174.53h19.35Zm82.07,86.08H188.53v-51c0-7.08-2.6-10-11.84-10a43.46,43.46,0,0,0-15.32,3.74v57.21H142.48V202h18.21v6.65h.71a41.54,41.54,0,0,1,24.42-8.1c14.31,0,21.82,5.93,21.82,20.81Zm55.05-2.45c-4.92,14.3-13.43,23.56-28,23.56a29.35,29.35,0,0,1-12-2.31V282.75a26.65,26.65,0,0,0,7.65.87,10.77,10.77,0,0,0,12.27-7.81l2.61-6.64L217,202H237l17.48,43.92H255L271.65,202h18.21Z"/><path id="패스_12" data-name="패스 12" class="cls-1" d="M366.55,212.44H355.87v-15h10.68v-9.3c0-16.93,11.13-24.4,26.2-24.4a42.65,42.65,0,0,1,15.71,2.44v13.1a45.81,45.81,0,0,0-9.76-1.07c-8.08,0-12.35,3.66-12.35,12v7.17h17.1v15H386.37v64.06H366.54Z"/><path id="패스_13" data-name="패스 13" class="cls-1" d="M415.66,168.51H436.1v17.08H415.66Zm.15,29H436v79H415.81Z"/><rect id="사각형_68" data-name="사각형 68" class="cls-1" x="454.4" y="165" width="20.14" height="111.49"/><path id="패스_14" data-name="패스 14" class="cls-1" d="M492.53,197.49h19.21v7.32h.77A39.39,39.39,0,0,1,536.6,196a20.59,20.59,0,0,1,19.07,8.85h.77A45.83,45.83,0,0,1,582.37,196a19,19,0,0,1,21.81,21.52v59h-20v-54c0-7.17-2.9-10.37-11.13-10.37a40.06,40.06,0,0,0-14.8,4.12,19.42,19.42,0,0,1,.15,3v57.19H538.29v-54c0-7.17-2.74-10.37-11.14-10.37a43.41,43.41,0,0,0-14.64,4v60.39h-20Z"/></g></svg>