<svg id="Layer_1" data-name="Layer 1" xmlns="http://www.w3.org/2000/svg" viewBox="0 0 654.96 410.6"><defs><style>.cls-1{fill:#161615;}</style></defs><g id="그룹_56" data-name="그룹 56"><path id="패스_15" data-name="패스 15" class="cls-1" d="M56.81,258V216.22h-10v-14h10V184.56H75.45v17.62H92.64v14H75.45v38.72c0,6.35,2.74,8.52,9.82,8.52a28,28,0,0,0,8.09-1.16v12.57a30.53,30.53,0,0,1-14.59,3c-13.58,0-22-5-22-19.94"/><path id="패스_16" data-name="패스 16" class="cls-1" d="M106.21,174.75h19.36v16.19H106.21Zm.14,27.45h19.09v74.86H106.35Z"/><path id="패스_17" data-name="패스 17" class="cls-1" d="M142.48,202.2h18.2v6.65h.72a41.54,41.54,0,0,1,24.42-8.1c14.31,0,21.82,5.92,21.82,20.81V277H188.58V226c0-7.08-2.61-10-11.85-10a43.46,43.46,0,0,0-15.32,3.74V277H142.49Z"/><path id="패스_18" data-name="패스 18" class="cls-1" d="M222.66,295.82V283a26.76,26.76,0,0,0,7.66.87A10.79,10.79,0,0,0,242.6,276l2.6-6.64L217,202.21H237l17.48,43.92H255l16.65-43.92h18.21l-27.14,72.38c-4.91,14.31-13.43,23.55-28.07,23.55a29.38,29.38,0,0,1-12-2.31"/><path id="패스_19" data-name="패스 19" class="cls-1" d="M642.56,170.53,330,11.12a34.24,34.24,0,0,0-3.59-1.53h0l-.77-.24c-.47-.16-.94-.31-1.42-.45s-.94-.25-1.37-.36-.93-.21-1.36-.3L320,8a7.22,7.22,0,0,1-.79-.13h0a32.12,32.12,0,0,0-3.92-.26H16a8,8,0,0,0-8,8V321.45H8a2.36,2.36,0,0,0,.13.78.45.45,0,0,0,.06.27,1.78,1.78,0,0,1,.12.47c0,.15.09.23.12.34s.09.25.14.37.1.23.15.35l.16.33.19.33.2.32.21.3.24.32.22.26.28.31.27.25.32.29.24.2.35.27.26.17.37.23.3.17.36.17.35.15.34.13.4.13.33.08.42.09h.11l423.5,74.35a8.07,8.07,0,0,0,1.39.12H638.91a8,8,0,0,0,8-8h0V177.69a8,8,0,0,0-4.38-7.15M313.06,305.15a7.48,7.48,0,0,1-7.48,7.49h-274a7.49,7.49,0,0,1-7.49-7.49V31.09a7.48,7.48,0,0,1,7.49-7.48h274a7.48,7.48,0,0,1,7.48,7.48ZM408.5,179.57a46.39,46.39,0,0,0-9.76-1.07c-8.08,0-12.35,3.66-12.35,12.05v7.17h17.09v15H386.37v64.06H366.55V212.66H355.87v-15h10.68v-9.3c0-16.92,11.13-24.4,26.19-24.4a42.59,42.59,0,0,1,15.71,2.44Zm27.44,97.15H415.81v-79h20.13Zm.15-90.9H415.64V168.74h20.43Zm38.44,90.9H454.39V165.24h20.14Zm129.63,0h-20v-54c0-7.17-2.9-10.37-11.14-10.37a40.2,40.2,0,0,0-14.79,4.12,19.42,19.42,0,0,1,.15,3.05v57.2H538.28v-54c0-7.17-2.75-10.37-11.14-10.37a43.64,43.64,0,0,0-14.64,4v60.4h-20v-79h19.22V205h.77a39.38,39.38,0,0,1,24.09-8.84A20.56,20.56,0,0,1,555.67,205h.76a45.69,45.69,0,0,1,25.92-8.84,19,19,0,0,1,21.81,21.52Z"/></g></svg>